<?xml version="1.0" encoding="UTF-8" standalone="no"?>
<svg
   xmlns:dc="http://purl.org/dc/elements/1.1/"
   xmlns:cc="http://creativecommons.org/ns#"
   xmlns:rdf="http://www.w3.org/1999/02/22-rdf-syntax-ns#"
   xmlns:svg="http://www.w3.org/2000/svg"
   xmlns="http://www.w3.org/2000/svg"
   xmlns:sodipodi="http://sodipodi.sourceforge.net/DTD/sodipodi-0.dtd"
   xmlns:inkscape="http://www.inkscape.org/namespaces/inkscape"
   version="1.1"
   id="Your_Icon"
   x="0px"
   y="0px"
   width="100px"
   height="100px"
   viewBox="0 0 100 100"
   enable-background="new 0 0 100 100"
   xml:space="preserve"
   inkscape:version="0.48.4 r9939"
   sodipodi:docname="cloud.svg"
   inkscape:export-filename="/home/martin/git/treedo/app/src/main/res/drawable-xhdpi/cloud_download.png"
   inkscape:export-xdpi="460.79999"
   inkscape:export-ydpi="460.79999"><metadata
     id="metadata9"><rdf:RDF><cc:Work
         rdf:about=""><dc:format>image/svg+xml</dc:format><dc:type
           rdf:resource="http://purl.org/dc/dcmitype/StillImage" /><dc:title></dc:title></cc:Work></rdf:RDF></metadata><defs
     id="defs7"><filter
       id="filter4472"
       style="color-interpolation-filters:sRGB;"
       inkscape:label="Drop Shadow"
       x="-1"
       y="-1.01"
       width="3"
       height="3"><feFlood
         id="feFlood4474"
         flood-opacity="0.5"
         flood-color="rgb(0,0,0)"
         result="flood" /><feComposite
         id="feComposite4476"
         in2="SourceGraphic"
         in="flood"
         operator="in"
         result="composite1" /><feGaussianBlur
         id="feGaussianBlur4478"
         in="composite"
         stdDeviation="3"
         result="blur" /><feOffset
         id="feOffset4480"
         dx="2"
         dy="2"
         result="offset" /><feComposite
         id="feComposite4482"
         in2="offset"
         in="SourceGraphic"
         operator="over"
         result="composite2" /></filter></defs><sodipodi:namedview
     pagecolor="#ffffff"
     bordercolor="#666666"
     borderopacity="1"
     objecttolerance="10"
     gridtolerance="10"
     guidetolerance="10"
     inkscape:pageopacity="0"
     inkscape:pageshadow="2"
     inkscape:window-width="1364"
     inkscape:window-height="718"
     id="namedview5"
     showgrid="false"
     inkscape:object-paths="true"
     inkscape:snap-bbox="true"
     inkscape:snap-bbox-edge-midpoints="true"
     inkscape:snap-bbox-midpoints="true"
     inkscape:snap-intersection-paths="true"
     inkscape:zoom="4.72"
     inkscape:cx="12.845207"
     inkscape:cy="37.63414"
     inkscape:window-x="0"
     inkscape:window-y="0"
     inkscape:window-maximized="1"
     inkscape:current-layer="Your_Icon" /><path
     d="m 97.974,53.851 c -2.335,-4.665 -7.232,-8.615 -12.197,-9.842 -0.497,-0.124 -0.585,-0.16 -0.585,-0.249 0,-0.057 0.062,-0.569 0.14,-1.144 0.129,-0.942 0.14,-1.196 0.14,-2.6 0,-1.149 -0.021,-1.734 -0.088,-2.252 -0.362,-2.889 -1.098,-5.327 -2.393,-7.947 -2.091,-4.24 -5.213,-7.745 -8.884,-9.971 -2.438,-1.476 -6.699,-3.148 -8.76,-3.438 -1.227,-0.171 -3.712,-0.228 -5.731,-0.124 -1.512,0.072 -3.008,0.228 -3.826,0.389 -1.864,0.378 -4.483,1.444 -6.658,2.718 -3.961,2.314 -7.098,5.395 -9.034,8.863 -0.187,0.332 -0.368,0.606 -0.404,0.606 -0.036,0 -0.119,-0.031 -0.181,-0.073 -0.233,-0.149 -1.465,-0.662 -2.139,-0.885 -3.251,-1.082 -7.165,-1.295 -10.4,-0.569 -4.055,0.911 -8.43,3.758 -11.168,7.284 -1.248,1.6 -2.071,3.21 -2.827,5.529 -0.559,1.719 -0.937,3.474 -0.942,4.375 -0.005,0.543 0.058,0.491 -1.237,1.134 -1.672,0.828 -2.573,1.418 -3.966,2.594 -0.637,0.538 -1.884,1.781 -2.475,2.47 -2.366,2.738 -3.743,5.845 -4.261,9.646 -0.13,0.937 -0.13,3.287 -0.005,4.24 0.352,2.614 1.175,4.98 2.484,7.149 0.798,1.32 1.657,2.418 2.832,3.619 2.739,2.801 4.8,4.013 8.398,4.949 0.983,0.254 1.393,0.331 2.273,0.435 1.522,0.177 3.608,0.26 8.408,0.342 9.355,0.155 47.688,0.243 51.54,0.114 7.854,-0.254 9.852,-0.616 13.751,-2.49 1.973,-0.953 3.314,-1.9 4.841,-3.422 1.004,-1.005 1.485,-1.585 2.195,-2.636 1.802,-2.682 2.857,-5.84 3.132,-9.371 0.249,-3.246 -0.378,-6.254 -1.973,-9.443 z"
     id="path3"
     style="fill:#3f51b5;fill-opacity:1;"
     inkscape:connector-curvature="0"
     sodipodi:nodetypes="ccscsccccccccscccccccccccccccccccccc" /><g
     id="g4332"
     transform="translate(-23.305235,-7.4871099)"
     style="filter:url(#filter4472)"><path
       id="path4330"
       style="font-size:medium;font-style:normal;font-variant:normal;font-weight:normal;font-stretch:normal;text-indent:0;text-align:start;text-decoration:none;line-height:normal;letter-spacing:normal;word-spacing:normal;text-transform:none;direction:ltr;block-progression:tb;writing-mode:lr-tb;text-anchor:start;baseline-shift:baseline;color:#000000;fill:#ffffff;fill-opacity:1;stroke:none;stroke-width:3.50000000000000000;marker:none;visibility:visible;display:inline;overflow:visible;enable-background:accumulate;font-family:Sans;-inkscape-font-specification:Sans;"
       d="M 65.28125,62.0625 A 1.750175,1.750175 0 0 0 64.0625,65.09375 L 72,73.03125 73.21875,74.25 l 1.25,-1.21875 8.0625,-7.9375 a 1.750175,1.750175 0 1 0 -2.4375,-2.5 L 73.25,69.3125 66.53125,62.59375 a 1.750175,1.750175 0 0 0 -1.25,-0.53125 z m 7.8125,-14.75 a 1.750175,1.750175 0 0 0 -1.53125,1.78125 l 0,19.71875 a 1.750175,1.750175 0 1 0 3.5,0 l 0,-19.71875 A 1.750175,1.750175 0 0 0 73.09375,47.3125 z"
       inkscape:connector-curvature="0"
       transform="matrix(-1,0,0,-1,146.65569,121.54873)" /></g></svg>