<?xml version="1.0" encoding="UTF-8" standalone="no"?>
<!-- Created with Inkscape (http://www.inkscape.org/) -->

<svg
   xmlns:dc="http://purl.org/dc/elements/1.1/"
   xmlns:cc="http://creativecommons.org/ns#"
   xmlns:rdf="http://www.w3.org/1999/02/22-rdf-syntax-ns#"
   xmlns:svg="http://www.w3.org/2000/svg"
   xmlns="http://www.w3.org/2000/svg"
   xmlns:sodipodi="http://sodipodi.sourceforge.net/DTD/sodipodi-0.dtd"
   xmlns:inkscape="http://www.inkscape.org/namespaces/inkscape"
   id="svg2"
   version="1.1"
   inkscape:version="0.48.4 r9939"
   width="120"
   height="120"
   xml:space="preserve"
   sodipodi:docname="core_icons.ai"><metadata
     id="metadata8"><rdf:RDF><cc:Work
         rdf:about=""><dc:format>image/svg+xml</dc:format><dc:type
           rdf:resource="http://purl.org/dc/dcmitype/StillImage" /><dc:title></dc:title></cc:Work></rdf:RDF></metadata><defs
     id="defs6"><clipPath
       clipPathUnits="userSpaceOnUse"
       id="clipPath16"><path
         d="M 0,96 96,96 96,0 0,0 0,96 z"
         id="path18" /></clipPath><clipPath
       clipPathUnits="userSpaceOnUse"
       id="clipPath32"><path
         d="M 0,96 96,96 96,0 0,0 0,96 z"
         id="path34" /></clipPath><clipPath
       clipPathUnits="userSpaceOnUse"
       id="clipPath56"><path
         d="M 0,96 96,96 96,0 0,0 0,96 z"
         id="path58" /></clipPath><clipPath
       clipPathUnits="userSpaceOnUse"
       id="clipPath68"><path
         d="M 0,96 96,96 96,0 0,0 0,96 z"
         id="path70" /></clipPath><clipPath
       clipPathUnits="userSpaceOnUse"
       id="clipPath84"><path
         d="M 0,96 96,96 96,0 0,0 0,96 z"
         id="path86" /></clipPath><clipPath
       clipPathUnits="userSpaceOnUse"
       id="clipPath104"><path
         d="M 0,96 96,96 96,0 0,0 0,96 z"
         id="path106" /></clipPath><clipPath
       clipPathUnits="userSpaceOnUse"
       id="clipPath132"><path
         d="M 0,96 96,96 96,0 0,0 0,96 z"
         id="path134" /></clipPath><clipPath
       clipPathUnits="userSpaceOnUse"
       id="clipPath148"><path
         d="M 0,96 96,96 96,0 0,0 0,96 z"
         id="path150" /></clipPath><clipPath
       clipPathUnits="userSpaceOnUse"
       id="clipPath160"><path
         d="M 0,96 96,96 96,0 0,0 0,96 z"
         id="path162" /></clipPath><clipPath
       clipPathUnits="userSpaceOnUse"
       id="clipPath180"><path
         d="M 0,96 96,96 96,0 0,0 0,96 z"
         id="path182" /></clipPath><clipPath
       clipPathUnits="userSpaceOnUse"
       id="clipPath192"><path
         d="M 0,96 96,96 96,0 0,0 0,96 z"
         id="path194" /></clipPath><clipPath
       clipPathUnits="userSpaceOnUse"
       id="clipPath212"><path
         d="M 0,96 96,96 96,0 0,0 0,96 z"
         id="path214" /></clipPath><clipPath
       clipPathUnits="userSpaceOnUse"
       id="clipPath224"><path
         d="M 0,96 96,96 96,0 0,0 0,96 z"
         id="path226" /></clipPath><clipPath
       clipPathUnits="userSpaceOnUse"
       id="clipPath242"><path
         d="M 0,96 96,96 96,0 0,0 0,96 z"
         id="path244" /></clipPath><clipPath
       clipPathUnits="userSpaceOnUse"
       id="clipPath262"><path
         d="M 0,96 96,96 96,0 0,0 0,96 z"
         id="path264" /></clipPath></defs><sodipodi:namedview
     pagecolor="#ffffff"
     bordercolor="#666666"
     borderopacity="1"
     objecttolerance="10"
     gridtolerance="10"
     guidetolerance="10"
     inkscape:pageopacity="0"
     inkscape:pageshadow="2"
     inkscape:window-width="640"
     inkscape:window-height="480"
     id="namedview4"
     showgrid="false"
     inkscape:zoom="0.98333333"
     inkscape:cx="83.365761"
     inkscape:cy="51.496146"
     inkscape:window-x="0"
     inkscape:window-y="0"
     inkscape:window-maximized="0"
     inkscape:current-layer="g10" /><g
     id="g10"
     inkscape:groupmode="layer"
     inkscape:label="core_icons"
     transform="matrix(1.25,0,0,-1.25,0,120)"><g
       id="g12"
       transform="translate(-419.38983,136.27119)"><g
         id="g14"
         clip-path="url(#clipPath16)"><g
           id="g20"
           transform="translate(57.7197,16.8389)"><path
             d="m 0,0 c -3.16,-0.99 -6.44,-1.49 -9.7,-1.49 -5.31,0 -10.58,1.37 -15.34,3.93 l -7.19,-7.68 -1.91,21.28 22.53,0.76 -8.1,-8.67 c 5.48,-2.41 11.689,-2.79 17.46,-0.97 10.96,3.46 18.09,13.87 17.34,25.3 l 7.48,0.49 C 23.55,18.061 14.27,4.51 0,0 M 0.279,53.59 C -5.21,56.01 -11.42,56.39 -17.19,54.561 -28.15,51.11 -35.27,40.71 -34.53,29.26 l -7.48,-0.489 c -0.97,14.909 8.31,28.449 22.56,32.949 8.35,2.631 17.39,1.72 25.07,-2.43 l 7.18,7.67 1.91,-21.28 -22.54,-0.75 8.109,8.66 z"
             style="fill:#000000;fill-opacity:1;fill-rule:evenodd;stroke:none"
             id="path22"
             inkscape:connector-curvature="0" /></g><g
           id="g24"
           transform="translate(57.7197,16.8389)"><path
             d="m 0,0 c -3.16,-0.99 -6.44,-1.49 -9.7,-1.49 -5.31,0 -10.58,1.37 -15.34,3.93 l -7.19,-7.68 -1.91,21.28 22.53,0.76 -8.1,-8.67 c 5.48,-2.41 11.689,-2.79 17.46,-0.97 10.96,3.46 18.09,13.87 17.34,25.3 l 7.48,0.49 C 23.55,18.061 14.27,4.51 0,0 M 0.279,53.59 C -5.21,56.01 -11.42,56.39 -17.19,54.561 -28.15,51.11 -35.27,40.71 -34.53,29.26 l -7.48,-0.489 c -0.97,14.909 8.31,28.449 22.56,32.949 8.35,2.631 17.39,1.72 25.07,-2.43 l 7.18,7.67 1.91,-21.28 -22.54,-0.75 8.109,8.66 z"
             style="fill:#000000;fill-opacity:1;fill-rule:evenodd;stroke:none"
             id="path26"
             inkscape:connector-curvature="0" /></g></g></g><g
       id="g28"
       transform="translate(20.035865,-94.202334)"><g
         id="g30"
         clip-path="url(#clipPath32)"><g
           id="g36"
           transform="translate(59.9287,37.2949)"><path
             d="m 0,0 c -3.469,-1.859 -7.433,-2.92 -11.641,-2.92 -4.204,0 -8.166,1.059 -11.635,2.92 -7.494,-1.969 -13.368,-6.635 -16.058,-16.668 l 55.395,0 C 13.369,-6.633 7.498,-1.967 0,0"
             style="fill:#000000;fill-opacity:1;fill-rule:nonzero;stroke:none"
             id="path38"
             inkscape:connector-curvature="0" /></g><g
           id="g40"
           transform="translate(49.2285,43.8105)"><path
             d="m 0,0 c -5.749,0 -10.807,3.775 -13.754,9.49 l 27.508,0 C 10.807,3.775 5.752,0 0,0 m -0.94,34.563 c -10.653,0 -19.287,-8.634 -19.287,-19.288 0,-10.656 8.634,-19.289 19.287,-19.289 10.656,0 19.29,8.633 19.29,19.289 0,10.654 -8.634,19.288 -19.29,19.288"
             style="fill:#000000;fill-opacity:1;fill-rule:nonzero;stroke:none"
             id="path42"
             inkscape:connector-curvature="0" /></g></g></g><g
       id="g44"
       transform="translate(-106.77452,-4.1711977)"><path
         d="m 0,0 0,-34.611 66.164,0 L 66.164,0 33.08,-16.448 0,0 z"
         style="fill:#000000;fill-opacity:1;fill-rule:evenodd;stroke:none"
         id="path46"
         inkscape:connector-curvature="0" /></g><g
       id="g48"
       transform="translate(-106.77452,10.320902)"><path
         d="M 0,0 0,-9.21 33.08,-25.654 66.164,-9.21 66.164,0 0,0 z"
         style="fill:#000000;fill-opacity:1;fill-rule:evenodd;stroke:none"
         id="path50"
         inkscape:connector-curvature="0" /></g><g
       id="g52"
       transform="translate(323.79661,-111.05085)"><g
         id="g54"
         clip-path="url(#clipPath56)"><g
           id="g60"
           transform="translate(25.5015,44.3682)"><path
             d="m 0,0 c -7.101,7.107 -7.101,18.626 0,25.728 7.107,7.106 18.616,7.1 25.727,0 C 32.83,18.626 32.83,7.111 25.727,0 18.616,-7.103 7.101,-7.103 0,0 M 53.568,-18.527 41.409,-6.363 c -1.071,1.068 -3.008,0.967 -4.95,-0.045 l -5.305,5.302 c 6.912,9.031 6.26,21.996 -2.003,30.26 -8.996,8.992 -23.58,8.992 -32.576,0 -8.993,-8.999 -8.993,-23.583 0,-32.579 8.264,-8.261 21.229,-8.912 30.259,-1.999 l 5.305,-5.303 c -1.011,-1.944 -1.114,-3.88 -0.047,-4.952 l 12.163,-12.162 c 1.537,-1.536 4.872,-0.692 7.439,1.883 2.569,2.565 3.413,5.896 1.874,7.431"
             style="fill:#000000;fill-opacity:1;fill-rule:nonzero;stroke:none"
             id="path62"
             inkscape:connector-curvature="0" /></g></g></g><g
       id="g64"
       transform="translate(-314.0339,247.32203)"><g
         id="g66"
         clip-path="url(#clipPath68)"><g
           id="g72"
           transform="translate(57.7197,16.8389)"><path
             d="m 0,0 c -3.16,-0.99 -6.44,-1.49 -9.7,-1.49 -5.31,0 -10.58,1.37 -15.34,3.93 l -7.19,-7.68 -1.91,21.28 22.53,0.76 -8.1,-8.67 c 5.48,-2.41 11.689,-2.79 17.46,-0.97 10.96,3.46 18.09,13.87 17.34,25.3 l 7.48,0.49 C 23.55,18.061 14.27,4.51 0,0 M 0.279,53.59 C -5.21,56.01 -11.42,56.39 -17.19,54.561 -28.15,51.11 -35.27,40.71 -34.53,29.26 l -7.48,-0.489 c -0.97,14.909 8.31,28.449 22.56,32.949 8.35,2.631 17.39,1.72 25.07,-2.43 l 7.18,7.67 1.91,-21.28 -22.54,-0.75 8.109,8.66 z"
             style="fill:#000000;fill-opacity:1;fill-rule:evenodd;stroke:none"
             id="path74"
             inkscape:connector-curvature="0" /></g></g></g><g
       id="g76"
       transform="translate(-392.40815,345.07445)"><path
         d="m 0,0 11.033,-25.941 28.078,-2.474 -21.258,-18.51 6.318,-27.47 L 0,-59.893 l -24.171,-14.502 6.318,27.47 -21.26,18.51 28.08,2.474 L 0,0 z"
         style="fill:#000000;fill-opacity:1;fill-rule:nonzero;stroke:none"
         id="path78"
         inkscape:connector-curvature="0" /></g><g
       id="g80"
       transform="translate(98.94701,28.763666)"><g
         id="g82"
         clip-path="url(#clipPath84)"><g
           id="g88"
           transform="translate(47.7935,62.5181)"><path
             d="m 0,0 c -7.701,-0.014 -13.937,-6.272 -13.923,-13.976 0.017,-7.699 6.277,-13.934 13.977,-13.916 7.7,0.013 13.937,6.269 13.921,13.971 C 13.962,-6.218 7.705,0.016 0,0"
             style="fill:#000000;fill-opacity:1;fill-rule:nonzero;stroke:none"
             id="path90"
             inkscape:connector-curvature="0" /></g><g
           id="g92"
           transform="translate(47.8618,25.6318)"><path
             d="m 0,0 c -12.651,-0.025 -22.958,10.245 -22.981,22.895 -0.028,12.651 10.244,22.964 22.896,22.99 C 12.566,45.908 22.88,35.636 22.902,22.982 22.928,10.333 12.65,0.023 0,0 M 35.094,24.992 26.77,24.979 C 25.771,38.234 15.154,48.809 1.894,49.76 L 1.878,58.088 -2.097,58.081 -2.083,49.75 C -15.335,48.749 -25.91,38.133 -26.861,24.875 l -8.326,-0.017 0.005,-3.971 8.327,0.015 C -25.851,7.648 -15.236,-2.925 -1.974,-3.876 l 0.012,-8.334 3.974,0.006 -0.016,8.334 c 13.255,1.002 23.827,11.618 24.783,24.878 l 8.328,0.013 -0.013,3.971 z"
             style="fill:#000000;fill-opacity:1;fill-rule:nonzero;stroke:none"
             id="path94"
             inkscape:connector-curvature="0" /></g></g></g><g
       id="g96"
       transform="translate(192.23353,15.765755)"><path
         d="m 0,0 -4.142,4.143 -42.722,-43.106 -19.526,19.404 -4.143,-4.141 23.7,-23.552 4.143,4.14 -0.019,0.02 L 0,0 z"
         style="fill:#000000;fill-opacity:1;fill-rule:evenodd;stroke:none"
         id="path98"
         inkscape:connector-curvature="0" /></g><g
       id="g100"
       transform="translate(174.10169,143.18644)"><g
         id="g102"
         clip-path="url(#clipPath104)"><g
           id="g108"
           transform="translate(46.8188,64.416)"><path
             d="m 0,0 -23.506,-23.742 c 0,0 2.026,-1.912 7.237,-1.682 1.115,-2.373 2.168,-5.168 8.255,-8.027 -0.246,-4.966 2.144,-7.751 2.144,-7.751 l 23.522,23.719 c -0.286,3.235 -2.707,7.265 -6.547,11.062 C 5.854,-1.218 1.46,-0.205 0,0"
             style="fill:#000000;fill-opacity:1;fill-rule:nonzero;stroke:none"
             id="path110"
             inkscape:connector-curvature="0" /></g><g
           id="g112"
           transform="translate(80.8242,81.395)"><path
             d="m 0,0 c -6.901,5.655 -11.671,3.997 -14.103,1.656 -0.844,-0.817 -3.512,-2.968 -5.466,-4.532 2.2,-0.141 6.614,-1.09 11.465,-5.888 4.824,-4.775 5.744,-8.86 5.795,-11.138 1.643,2.121 4.216,5.441 4.615,5.844 C 4.962,-11.354 6.903,-5.659 0,0"
             style="fill:#000000;fill-opacity:1;fill-rule:nonzero;stroke:none"
             id="path114"
             inkscape:connector-curvature="0" /></g><g
           id="g116"
           transform="translate(27.1099,36.1602)"><path
             d="m 0,0 c -4.659,-0.012 -5.746,1.032 -5.746,1.032 l -10.816,-27.103 26.996,11.214 c 0,0 -2.142,4.242 -2.087,6.513 C 6.46,-7.744 1.515,-4.738 0,0"
             style="fill:#000000;fill-opacity:1;fill-rule:nonzero;stroke:none"
             id="path118"
             inkscape:connector-curvature="0" /></g><g
           id="g120"
           transform="translate(58.2207,75.9121)"><path
             d="m 0,0 -2.681,-2.637 c 0,0 5.119,-0.832 11.183,-6.843 3.807,-3.779 5.861,-7.775 6.228,-10.568 l 2.558,2.553 c 0,0 0.891,4.622 -5.686,11.197 C 5.14,0.164 0,0 0,0"
             style="fill:#000000;fill-opacity:1;fill-rule:nonzero;stroke:none"
             id="path122"
             inkscape:connector-curvature="0" /></g><g
           id="g124"
           transform="translate(53.165,69.9888)"><path
             d="m 0,0 -2.562,-2.525 c 0,0 4.903,-0.797 10.704,-6.557 3.644,-3.614 5.613,-7.437 5.966,-10.113 l 2.447,2.449 c 0,0 0.851,4.424 -5.445,10.718 C 4.926,0.158 0,0 0,0"
             style="fill:#000000;fill-opacity:1;fill-rule:nonzero;stroke:none"
             id="path126"
             inkscape:connector-curvature="0" /></g></g></g><g
       id="g128"
       transform="translate(-398.23728,-148.88136)"><g
         id="g130"
         clip-path="url(#clipPath132)"><g
           id="g136"
           transform="translate(64.4443,50.8335)"><path
             d="m 0,0 c 0,-9.482 -7.375,-17.498 -16.473,-17.498 -9.092,0 -16.415,8.016 -16.415,17.498 l -6.578,0 c 0,-11.868 8.707,-22.741 19.695,-24.279 l 0.031,-10.788 6.575,-0.022 0.028,10.785 C -2.139,-22.767 6.577,-11.868 6.577,0 L 0,0 z m -16.444,-10.962 c 5.126,0 9.866,4.527 9.866,9.865 l 0,20.83 c 0,5.341 -4.74,9.866 -9.866,9.866 -5.126,0 -9.867,-4.525 -9.867,-9.866 l 0,-20.83 c 0,-5.338 4.741,-9.865 9.867,-9.865"
             style="fill:#000000;fill-opacity:1;fill-rule:nonzero;stroke:none"
             id="path138"
             inkscape:connector-curvature="0" /></g></g></g><g
       id="g140"
       transform="translate(65.243188,141.93525)"><path
         d="m 0,0 -11.909,-7.055 0,-14.534 11.909,-7.097 2.982,0 L 2.982,0 0,0 z"
         style="fill:#000000;fill-opacity:1;fill-rule:nonzero;stroke:none"
         id="path142"
         inkscape:connector-curvature="0" /></g><g
       id="g144"
       transform="translate(-9.7627119,78.915254)"><g
         id="g146"
         clip-path="url(#clipPath148)"><g
           id="g152"
           transform="translate(16.7354,60.188)"><path
             d="m 0,0 0,-23.336 c 0,-3.211 2.595,-5.806 5.797,-5.806 l 37.666,0 0,34.94 -37.666,0 C 2.595,5.798 0,3.207 0,0"
             style="fill:#000000;fill-opacity:1;fill-rule:nonzero;stroke:none"
             id="path154"
             inkscape:connector-curvature="0" /></g></g></g><g
       id="g156"
       transform="translate(201.76271,240.81356)"><g
         id="g158"
         clip-path="url(#clipPath160)"><g
           id="g164"
           transform="translate(60.084,47.0728)"><path
             d="m 0,0 c 0,-6.837 -5.542,-12.382 -12.376,-12.382 -6.838,0 -12.383,5.545 -12.383,12.382 0,6.833 5.545,12.377 12.383,12.377 C -5.542,12.377 0,6.833 0,0"
             style="fill:#000000;fill-opacity:1;fill-rule:nonzero;stroke:none"
             id="path166"
             inkscape:connector-curvature="0" /></g><g
           id="g168"
           transform="translate(47.708,28.9844)"><path
             d="m 0,0 c -9.994,0 -18.09,8.1 -18.09,18.086 0,9.991 8.096,18.091 18.09,18.091 9.987,0 18.086,-8.1 18.086,-18.091 C 18.086,8.1 9.987,0 0,0 m 33.62,41.701 -22.841,0 0,2.567 0,3.049 -21.303,0 0,-3.049 0,-2.567 c 0,0 -2.29,0.037 -4.233,0 -1.943,-0.033 -4.134,-0.761 -4.134,-0.761 l -14.703,-4.75 c 0,0 0.034,-2.061 0,-3.536 -0.038,-1.472 0,-34.587 0,-34.587 l 0,-3.079 c 0,0 67.135,0.006 67.214,0 0.084,-0.008 0,1.378 0,3.079 l 0,40.555 0,3.079 z"
             style="fill:#000000;fill-opacity:1;fill-rule:nonzero;stroke:none"
             id="path170"
             inkscape:connector-curvature="0" /></g><g
           id="g172"
           transform="translate(27.6592,72.2539)"><path
             d="m 0,0 -10.753,-3.643 0,4.932 0,0.949 L 0,2.238 0,1.289 0,0 z"
             style="fill:#000000;fill-opacity:1;fill-rule:nonzero;stroke:none"
             id="path174"
             inkscape:connector-curvature="0" /></g></g></g><g
       id="g176"
       transform="translate(198.50847,53.694915)"><g
         id="g178"
         clip-path="url(#clipPath180)"><g
           id="g184"
           transform="translate(67.8154,35.1211)"><path
             d="M 0,0 C -3.231,0 -6.123,-1.44 -8.088,-3.704 L -33.532,9.987 c 0.26,0.92 0.407,1.886 0.407,2.892 0,1.004 -0.147,1.971 -0.407,2.89 L -8.088,29.46 c 1.965,-2.262 4.857,-3.703 8.088,-3.703 5.895,0 10.69,4.791 10.69,10.662 0,5.896 -4.795,10.69 -10.69,10.69 -5.903,0 -10.698,-4.794 -10.698,-10.69 0,-1.002 0.15,-1.968 0.41,-2.888 L -35.746,19.859 c -1.962,2.251 -4.849,3.678 -8.074,3.678 -5.899,0 -10.692,-4.757 -10.692,-10.658 0,-5.902 4.793,-10.659 10.692,-10.659 3.225,0 6.112,1.426 8.075,3.679 l 25.457,-13.672 c -0.26,-0.92 -0.41,-1.887 -0.41,-2.887 0,-5.898 4.795,-10.692 10.698,-10.692 5.895,0 10.69,4.794 10.69,10.692 C 10.69,-4.79 5.895,0 0,0"
             style="fill:#000000;fill-opacity:1;fill-rule:nonzero;stroke:none"
             id="path186"
             inkscape:connector-curvature="0" /></g></g></g><g
       id="g188"
       transform="translate(96,229.42373)"><g
         id="g190"
         clip-path="url(#clipPath192)"><g
           id="g196"
           transform="translate(66.8154,54.4268)"><path
             d="m 0,0 c -0.046,0.282 -0.218,0.558 -0.476,0.821 -2.078,-2.112 -10.441,-2.461 -20.439,-2.461 -9.998,0 -18.353,0.349 -20.439,2.461 C -41.611,0.558 -41.771,0.282 -41.83,0 l -0.02,0 0.006,-0.152 c 0,-0.018 -0.006,-0.035 -0.006,-0.053 0,-0.041 0.012,-0.078 0.018,-0.117 l 1.627,-33.343 0.004,0 c 0.145,-2.614 3.138,-6.566 19.286,-6.566 16.151,0 19.146,3.952 19.287,6.566 l 0.012,0 1.629,33.343 c 0.003,0.039 0.015,0.076 0.015,0.117 0,0.018 -0.012,0.035 -0.012,0.053 L 0.028,0 0,0 z"
             style="fill:#000000;fill-opacity:1;fill-rule:nonzero;stroke:none"
             id="path198"
             inkscape:connector-curvature="0" /></g><g
           id="g200"
           transform="translate(40.0679,72.2031)"><path
             d="m 0,0 -0.657,-0.041 0,3.262 c 0,1.426 0.199,2.594 0.434,2.594 l 3.031,0 5.192,0 3.026,0 c 0.239,0 0.434,-1.168 0.434,-2.594 l 0,-3.209 C 9.655,0.105 7.777,0.164 5.833,0.164 3.819,0.164 1.863,0.105 0,0 m 15.785,-0.325 0,7.872 c 0,1.424 -1.164,2.596 -2.595,2.596 l -15.581,0 c -1.421,0 -2.59,-1.172 -2.59,-2.596 l 0,-7.962 c -7.703,-0.873 -12.976,-2.642 -12.976,-4.691 l 0,-3.893 c 0,-0.798 0.808,-1.559 2.258,-2.244 3.8,-1.785 12.014,-3.024 21.532,-3.024 9.526,0 17.736,1.239 21.541,3.024 1.441,0.685 2.257,1.446 2.257,2.244 l 0,3.893 c 0,2.121 -5.679,3.947 -13.846,4.781"
             style="fill:#000000;fill-opacity:1;fill-rule:nonzero;stroke:none"
             id="path202"
             inkscape:connector-curvature="0" /></g></g></g><g
       id="g204"
       transform="translate(-34.528871,-133.52747)"><path
         d="m 0,0 5.287,24.92 33.312,2.317 0,0.338 L 5.287,29.891 0,54.809 55.517,27.403 0,0 z"
         style="fill:#000000;fill-opacity:1;fill-rule:nonzero;stroke:none"
         id="path206"
         inkscape:connector-curvature="0" /></g><g
       id="g208"
       transform="translate(167.59322,-151.32203)"><g
         id="g210"
         clip-path="url(#clipPath212)"><g
           id="g216"
           transform="translate(28.5459,8.2266)"><path
             d="m 0,0 -0.006,0 c -4.917,0 -9.534,1.913 -13.005,5.388 -3.474,3.475 -5.393,8.092 -5.393,13.011 0,4.913 1.913,9.531 5.389,13.006 l 40.937,40.936 c 2.513,2.519 5.787,3.755 9.225,3.466 3.17,-0.259 6.309,-1.794 8.833,-4.318 5.212,-5.218 5.6,-13.322 0.858,-18.063 L 12.479,19.066 C 9.593,16.181 5.11,16.47 1.8,19.764 -1.333,22.903 -1.649,27.697 1.097,30.448 L 29.202,58.551 32.948,54.806 4.846,26.704 C 4.256,26.114 4.432,24.626 5.544,23.509 5.865,23.187 7.55,21.621 8.729,22.81 l 34.366,34.359 c 2.673,2.679 2.29,7.421 -0.86,10.576 -1.638,1.638 -3.6,2.628 -5.517,2.782 -1.878,0.165 -3.636,-0.512 -5.053,-1.93 L -9.271,27.662 c -2.479,-2.474 -3.838,-5.766 -3.838,-9.263 0,-3.501 1.366,-6.79 3.842,-9.267 2.473,-2.472 5.761,-3.837 9.261,-3.837 3.507,0 6.797,1.359 9.267,3.837 L 44.696,44.561 48.439,40.818 13.006,5.388 C 9.531,1.913 4.913,0 0,0"
             style="fill:#000000;fill-opacity:1;fill-rule:nonzero;stroke:none"
             id="path218"
             inkscape:connector-curvature="0" /></g></g></g><g
       id="g220"
       transform="translate(-258.71186,-79.728813)"><g
         id="g222"
         clip-path="url(#clipPath224)"><g
           id="g228"
           transform="translate(35.5479,78.8491)"><path
             d="m 0,0 c 0.464,0 0.431,-0.033 0.696,-0.232 0.265,-0.199 1.127,-1.294 1.26,-2.023 0.133,-0.729 0.133,-2.189 0.365,-3.615 0.232,-1.425 0.995,-5.372 1.89,-7.727 0.896,-2.354 1.327,-3.382 0.332,-4.84 -0.995,-1.46 -6.898,-7.529 -6.898,-7.529 0,0 1.724,-3.018 3.449,-5.173 1.724,-2.155 4.112,-5.239 7.395,-8.025 3.283,-2.786 6.5,-5.24 10.049,-7.064 3.483,3.449 6.434,6.367 7.229,7.064 0.796,0.696 0.929,0.928 2.587,0.43 1.657,-0.497 3.879,-1.459 6.201,-1.891 2.321,-0.43 4.841,-0.729 6.334,-0.894 1.492,-0.166 1.459,-0.232 1.956,-0.93 0.498,-0.695 0.996,-1.59 1.062,-1.822 0.066,-0.232 0,-1.227 0,-4.279 l 0,-8.393 c 0,-0.859 -0.067,-0.926 -0.266,-1.521 -0.199,-0.598 -0.629,-2.057 -0.729,-2.223 -0.099,-0.166 -1.427,-0.996 -2.454,-1.027 -1.028,-0.034 -4.346,0.099 -6.501,0.429 -2.155,0.332 -8.123,1.725 -10.444,2.489 -2.323,0.763 -9.584,3.216 -18.207,9.617 -8.622,6.4 -14.625,14.956 -18.074,21.787 -3.449,6.831 -5.173,14.591 -5.77,18.372 -0.597,3.78 -0.564,5.24 -0.365,6.301 0.199,1.061 1.227,1.824 1.857,2.189 0.63,0.364 1.492,0.63 2.421,0.53 0.929,-0.1 3.516,0.021 6.931,0.021 C -4.278,0.021 0,0 0,0"
             style="fill:#000000;fill-opacity:1;fill-rule:nonzero;stroke:none"
             id="path230"
             inkscape:connector-curvature="0" /></g></g></g><path
       d="m 55.572,17.927 -14.986,0 0,14.996 14.986,0 0,-14.996 z"
       style="fill:#000000;fill-opacity:1;fill-rule:nonzero;stroke:none"
       id="path232" /><path
       d="m 55.572,40.92 -14.986,0 0,14.996 14.986,0 0,-14.996 z"
       style="fill:#000000;fill-opacity:1;fill-rule:nonzero;stroke:none"
       id="path234" /><path
       d="m 55.572,62.914 -14.986,0 0,14.995 14.986,0 0,-14.995 z"
       style="fill:#000000;fill-opacity:1;fill-rule:nonzero;stroke:none"
       id="path236" /><g
       id="g238"
       transform="translate(-128.54237,53.694915)"><g
         id="g240"
         clip-path="url(#clipPath242)"><g
           id="g246"
           transform="translate(72.9502,69.2065)"><path
             d="m 0,0 c -1.059,-0.77 -1.959,-1.98 -2.389,-2.829 -0.22,-0.441 -0.518,-0.971 -0.9,-1.63 -0.33,-0.59 -0.73,-1.289 -1.198,-2.149 -2.451,-4.499 -4.94,-7.429 -4.96,-7.448 -0.019,-0.02 -1.389,-1.59 -2.909,-2.95 -8.498,3.65 -22.414,9.589 -23.753,9.928 -1.999,0.5 -3.909,-0.91 -3.989,-0.97 l -0.879,-0.66 0.939,-0.57 20.485,-12.436 -20.485,-12.426 -0.939,-0.57 0.879,-0.661 c 0.08,-0.058 1.99,-1.468 3.989,-0.968 1.33,0.33 15.255,6.277 23.753,9.926 1.52,-1.37 2.89,-2.938 2.9,-2.95 0.029,-0.029 2.518,-2.947 4.969,-7.457 0.468,-0.859 0.868,-1.559 1.209,-2.148 0.371,-0.661 0.669,-1.18 0.889,-1.62 0.43,-0.851 1.33,-2.059 2.389,-2.84 3.139,-2.298 7.577,-1.619 9.877,1.52 0.891,1.219 1.359,2.65 1.359,4.158 0,2.229 -1.069,4.359 -2.859,5.7 -0.77,0.569 -1.649,0.979 -2.479,1.169 -0.67,0.24 -1.179,0.32 -1.719,0.41 -0.8,0.139 -1.7,0.29 -3.519,1.019 -3.538,1.419 -6.498,4.05 -6.548,4.099 -0.86,0.72 -1.699,1.978 -2.439,3.639 0.74,1.669 1.579,2.929 2.459,3.669 0.03,0.019 2.979,2.649 6.528,4.069 1.819,0.73 2.719,0.889 3.519,1.019 0.54,0.09 1.049,0.18 1.649,0.391 0.9,0.219 1.779,0.629 2.569,1.198 1.781,1.34 2.839,3.46 2.839,5.689 0,1.511 -0.468,2.95 -1.359,4.159 C 7.568,1.619 3.139,2.309 0,0 m 4.639,-2.68 c 0.809,-0.13 1.519,-0.559 1.999,-1.209 0.39,-0.529 0.59,-1.151 0.59,-1.799 0,-0.97 -0.469,-1.9 -1.25,-2.47 -0.66,-0.48 -1.459,-0.68 -2.269,-0.55 -0.8,0.12 -1.51,0.55 -1.99,1.21 -0.389,0.529 -0.589,1.149 -0.589,1.799 0,0.97 0.46,1.889 1.239,2.46 0.66,0.49 1.471,0.679 2.27,0.559 m -20.405,-19.034 c 0,1.32 1.071,2.39 2.39,2.39 1.311,0 2.38,-1.07 2.38,-2.39 0,-1.311 -1.069,-2.379 -2.38,-2.379 -1.319,0 -2.39,1.068 -2.39,2.379 M 5.978,-35.271 c 0.781,-0.568 1.25,-1.488 1.25,-2.458 0,-0.65 -0.2,-1.271 -0.59,-1.801 -0.48,-0.659 -1.19,-1.089 -1.999,-1.208 -0.799,-0.131 -1.61,0.07 -2.27,0.549 -0.779,0.57 -1.239,1.5 -1.239,2.47 0,0.65 0.2,1.268 0.589,1.799 0.99,1.35 2.899,1.649 4.259,0.649"
             style="fill:#000000;fill-opacity:1;fill-rule:nonzero;stroke:none"
             id="path248"
             inkscape:connector-curvature="0" /></g><g
           id="g250"
           transform="translate(60,18)"><path
             d="m 0,0 -42,0 0,60 42,0 0,-12 6,0 0,18 -54,0 0,-72 L 0.155,-6 6,-6 6,12 0,12 0,0 z"
             style="fill:#000000;fill-opacity:1;fill-rule:nonzero;stroke:none"
             id="path252"
             inkscape:connector-curvature="0" /></g></g></g><path
       d="m 81.617119,183.60322 3.999,0 0,-3.998 -3.999,0 0,3.998 z m 0,7.527 3.999,0 0,-3.768 -3.999,0 0,3.768 z m 0,7.527 3.999,0 0,-3.77 -3.999,0 0,3.77 z m 0,7.528 3.999,0 0,-3.768 -3.999,0 0,3.768 z m 0,7.529 3.999,0 0,-3.77 -3.999,0 0,3.77 z m 0,7.527 3.999,0 0,-3.77 -3.999,0 0,3.77 z m 0,7.528 3.999,0 0,-3.769 -3.999,0 0,3.769 z m 0,7.528 3.999,0 0,-3.769 -3.999,0 0,3.769 z m 0,7.527 3.999,0 0,-3.768 -3.999,0 0,3.768 z m 0,7.758 3.999,0 0,-3.999 -3.999,0 0,3.999 z m -7.528,-67.979 3.77,0 0,-3.998 -3.77,0 0,3.998 z m 0,67.979 3.77,0 0,-3.999 -3.77,0 0,3.999 z m -21.463,-38.989 17.995,0 0,-17.994 -17.995,0 0,17.994 z m 0,23.994 17.995,0 0,-17.995 -17.995,0 0,17.995 z m 13.937,14.995 3.768,0 0,-3.999 -3.768,0 0,3.999 z m -7.529,0 3.77,0 0,-3.999 -3.77,0 0,3.999 z m -7.528,0 3.77,0 0,-3.999 -3.77,0 0,3.999 z m -7.527,-67.979 3.77,0 0,-3.998 -3.77,0 0,3.998 z m 0,67.979 3.77,0 0,-3.999 -3.77,0 0,3.999 z m -7.528,0 3.769,0 0,-3.999 -3.769,0 0,3.999 z m -7.528,0 3.769,0 0,-3.999 -3.769,0 0,3.999 z m 17.705,-32.99 -17.995,0 0,17.995 17.995,0 0,-17.995 z m -25.232,-34.989 3.769,0 0,-3.998 -3.769,0 0,3.998 z m 0,67.979 3.769,0 0,-3.999 -3.769,0 0,3.999 z m -7.758,-67.979 3.999,0 0,-3.998 -3.999,0 0,3.998 z m 0,7.527 3.999,0 0,-3.768 -3.999,0 0,3.768 z m 0,7.527 3.999,0 0,-3.77 -3.999,0 0,3.77 z m 0,7.528 3.999,0 0,-3.768 -3.999,0 0,3.768 z m 0,7.529 3.999,0 0,-3.77 -3.999,0 0,3.77 z m 0,7.527 3.999,0 0,-3.77 -3.999,0 0,3.77 z m 0,7.528 3.999,0 0,-3.769 -3.999,0 0,3.769 z m 0,7.528 3.999,0 0,-3.769 -3.999,0 0,3.769 z m 0,7.527 3.999,0 0,-3.768 -3.999,0 0,3.768 z m 0,7.758 3.999,0 0,-3.999 -3.999,0 0,3.999 z m 32.99,-56.983 -17.995,0 0,17.994 17.995,0 0,-17.994 z m -13.937,-14.994 -3.769,0 0,3.998 3.769,0 0,-3.998 z m 7.529,0 -3.769,0 0,3.998 3.769,0 0,-3.998 z m 15.055,0 -3.77,0 0,3.998 3.77,0 0,-3.998 z m 7.529,0 -3.77,0 0,3.998 3.77,0 0,-3.998 z m 7.526,0 -3.768,0 0,3.998 3.768,0 0,-3.998 z"
       style="fill:#000000;fill-opacity:1;fill-rule:evenodd;stroke:none"
       id="path254"
       inkscape:connector-curvature="0" /><path
       d="m -126.20239,250.98605 47.994,0 0,-60.002 -47.994,0 0,60.002 z m 41.996,-6.008 -35.999,0 0,-47.995 35.999,0 0,47.995 z m -16.665,-12.996 -13.335,0 0,1.999 13.335,0 0,-1.999 z m 10.667,-5.998 -24.002,0 0,1.999 24.002,0 0,-1.999 z m -6.668,-5.999 -17.334,0 0,1.999 17.334,0 0,-1.999 z m -3.999,-5.998 -13.335,0 0,2 13.335,0 0,-2 z m 9.338,-6.008 -22.673,0 0,2 22.673,0 0,-2 z m -4.668,49.005 -36,0 0,-48.005 3,0 0,-5.998 -3,0 -5.997,0 0,60.001 47.994,0 0,-5.998 0,-2.999 -5.997,0 0,2.999 z"
       style="fill:#000000;fill-opacity:1;fill-rule:evenodd;stroke:none"
       id="path256"
       inkscape:connector-curvature="0" /><g
       id="g258"
       transform="translate(-279.86441,71.59322)"><g
         id="g260"
         clip-path="url(#clipPath262)"><g
           id="g266"
           transform="translate(18.0039,9.002)"><path
             d="m 0,0 0,71.998 23.993,0 c 0,3.319 2.689,5.998 5.998,5.998 3.32,0 6.008,-2.679 6.008,-5.998 l 23.993,0 L 59.992,0 0,0 z m 29.991,74.997 c -1.65,0 -2.999,-1.34 -2.999,-2.999 0,-1.649 1.349,-2.999 2.999,-2.999 1.66,0 2.999,1.35 2.999,2.999 0,1.659 -1.339,2.999 -2.999,2.999 M 53.993,66 l -13.995,0 1.16,-3.488 c 5.518,-1.211 6.838,-4.56 6.838,-8.508 l -36,0 c 0,3.76 1.56,6.968 6.769,8.307 L 19.994,66 5.999,66 l 0,-60.002 47.994,0 0,60.002 z m -22.002,-22.003 -19.995,0 0,1.999 19.995,0 0,-1.999 z m 16.005,-5.998 -36,0 0,1.998 36,0 0,-1.998 z M 37.998,32 l -26.002,0 0,1.999 26.002,0 0,-1.999 z m -6.007,-5.998 -19.995,0 0,2 19.995,0 0,-2 z m 14.005,-5.999 -34,0 0,2 34,0 0,-2 z"
             style="fill:#000000;fill-opacity:1;fill-rule:evenodd;stroke:none"
             id="path268"
             inkscape:connector-curvature="0" /></g></g></g></g></svg>