<?xml version="1.0" encoding="UTF-8" standalone="no"?>
<svg
   xmlns:dc="http://purl.org/dc/elements/1.1/"
   xmlns:cc="http://creativecommons.org/ns#"
   xmlns:rdf="http://www.w3.org/1999/02/22-rdf-syntax-ns#"
   xmlns:svg="http://www.w3.org/2000/svg"
   xmlns="http://www.w3.org/2000/svg"
   xmlns:sodipodi="http://sodipodi.sourceforge.net/DTD/sodipodi-0.dtd"
   xmlns:inkscape="http://www.inkscape.org/namespaces/inkscape"
   version="1.0"
   id="Layer_1"
   x="0px"
   y="0px"
   width="100px"
   height="100px"
   viewBox="0 0 100 100"
   enable-background="new 0 0 100 100"
   xml:space="preserve"
   inkscape:version="0.48.4 r9939"
   sodipodi:docname="treedo.svg"
   inkscape:export-filename="/home/martin/git/list/app/src/main/res/drawable-xhdpi/treedo_launcher.png"
   inkscape:export-xdpi="459.42346"
   inkscape:export-ydpi="459.42346"><metadata
     id="metadata9"><rdf:RDF><cc:Work
         rdf:about=""><dc:format>image/svg+xml</dc:format><dc:type
           rdf:resource="http://purl.org/dc/dcmitype/StillImage" /><dc:title></dc:title></cc:Work></rdf:RDF></metadata><defs
     id="defs7"><filter
       id="filter3791"
       style="color-interpolation-filters:sRGB;"
       inkscape:label="Drop Shadow"><feFlood
         id="feFlood3793"
         flood-opacity="0.5"
         flood-color="rgb(0,0,0)"
         result="flood" /><feComposite
         id="feComposite3795"
         in2="SourceGraphic"
         in="flood"
         operator="in"
         result="composite1" /><feGaussianBlur
         id="feGaussianBlur3797"
         in="composite"
         stdDeviation="2"
         result="blur" /><feOffset
         id="feOffset3799"
         dx="2"
         dy="2"
         result="offset" /><feComposite
         id="feComposite3801"
         in2="offset"
         in="SourceGraphic"
         operator="over"
         result="composite2" /></filter><filter
       id="filter3948"
       style="color-interpolation-filters:sRGB;"
       inkscape:label="Drop Shadow"><feFlood
         id="feFlood3950"
         flood-opacity="0.5"
         flood-color="rgb(0,0,0)"
         result="flood" /><feComposite
         id="feComposite3952"
         in2="SourceGraphic"
         in="flood"
         operator="in"
         result="composite1" /><feGaussianBlur
         id="feGaussianBlur3954"
         in="composite"
         stdDeviation="2"
         result="blur" /><feOffset
         id="feOffset3956"
         dx="2"
         dy="2"
         result="offset" /><feComposite
         id="feComposite3958"
         in2="offset"
         in="SourceGraphic"
         operator="over"
         result="composite2" /></filter><filter
       color-interpolation-filters="sRGB"
       id="filter3948-2"
       inkscape:label="Drop Shadow"><feFlood
         id="feFlood3950-2"
         flood-opacity="0.5"
         flood-color="rgb(0,0,0)"
         result="flood" /><feComposite
         id="feComposite3952-5"
         in2="SourceGraphic"
         in="flood"
         operator="in"
         result="composite1" /><feGaussianBlur
         id="feGaussianBlur3954-9"
         stdDeviation="2"
         result="blur" /><feOffset
         id="feOffset3956-7"
         dx="2"
         dy="2"
         result="offset" /><feComposite
         id="feComposite3958-6"
         in2="offset"
         in="SourceGraphic"
         operator="over"
         result="composite2" /></filter><filter
       id="filter3007"
       style="color-interpolation-filters:sRGB;"
       inkscape:label="Drop Shadow"><feFlood
         id="feFlood3009"
         flood-opacity="0.5"
         flood-color="rgb(0,0,0)"
         result="flood" /><feComposite
         in2="SourceGraphic"
         id="feComposite3011"
         in="flood"
         operator="in"
         result="composite1" /><feGaussianBlur
         id="feGaussianBlur3013"
         in="composite"
         stdDeviation="5"
         result="blur" /><feOffset
         id="feOffset3015"
         dx="2"
         dy="2"
         result="offset" /><feComposite
         in2="offset"
         id="feComposite3017"
         in="SourceGraphic"
         operator="over"
         result="composite2" /></filter><filter
       id="filter3019"
       style="color-interpolation-filters:sRGB;"
       inkscape:label="Drop Shadow"><feFlood
         id="feFlood3021"
         flood-opacity="0.5"
         flood-color="rgb(0,0,0)"
         result="flood" /><feComposite
         id="feComposite3023"
         in2="SourceGraphic"
         in="flood"
         operator="in"
         result="composite1" /><feGaussianBlur
         id="feGaussianBlur3025"
         in="composite"
         stdDeviation="3"
         result="blur" /><feOffset
         id="feOffset3027"
         dx="2"
         dy="2"
         result="offset" /><feComposite
         id="feComposite3029"
         in2="offset"
         in="SourceGraphic"
         operator="over"
         result="composite2" /></filter></defs><sodipodi:namedview
     pagecolor="#ffffff"
     bordercolor="#666666"
     borderopacity="1"
     objecttolerance="10"
     gridtolerance="10"
     guidetolerance="10"
     inkscape:pageopacity="0"
     inkscape:pageshadow="2"
     inkscape:window-width="1364"
     inkscape:window-height="718"
     id="namedview5"
     showgrid="false"
     inkscape:zoom="3.337544"
     inkscape:cx="14.86283"
     inkscape:cy="70.637782"
     inkscape:window-x="0"
     inkscape:window-y="0"
     inkscape:window-maximized="1"
     inkscape:current-layer="Layer_1"
     inkscape:snap-bbox="true"
     inkscape:bbox-nodes="true"
     inkscape:bbox-paths="true"
     inkscape:snap-bbox-edge-midpoints="true"
     inkscape:snap-bbox-midpoints="true"
     inkscape:snap-page="true"
     inkscape:snap-global="true" /><g
     inkscape:groupmode="layer"
     id="layer2"
     inkscape:label="background"
     style="display:inline"><rect
       style="fill:#3f51b5;fill-opacity:1;stroke:none"
       id="rect3819"
       width="100"
       height="100"
       x="0"
       y="0"
       rx="10"
       ry="10"
       inkscape:export-xdpi="459.66"
       inkscape:export-ydpi="459.66"
       inkscape:export-filename="/home/martin/git/list/app/src/main/res/drawable-xhdpi/treedo.png" /><path
       style="fill:#ffffff;fill-opacity:0.26960784;stroke:none"
       mask="none"
       d="M 10.000002,-0.29962147 C 4.4600022,-0.29962147 2.0940553e-6,4.2624355 2.0940553e-6,9.9292066 l 0,3.1645444 C 2.0940553e-6,7.4269795 4.4600022,2.8649225 10.000002,2.8649225 l 80.000005,0 c 5.54,0 10.000003,4.562057 10.000003,10.2288285 l 0,-3.1645444 c 0,-5.6667711 -4.460003,-10.22882807 -10.000003,-10.22882807 l -80.000005,0 z"
       id="rect3819-5"
       inkscape:connector-curvature="0"
       inkscape:export-filename="/home/martin/git/list/app/src/main/res/drawable-xhdpi/rect3819-5.png"
       inkscape:export-xdpi="460.79999"
       inkscape:export-ydpi="460.79999" /></g><rect
     style="opacity:0.65991905;fill:none;stroke:none"
     id="rect3005"
     width="7.2033896"
     height="14.618644"
     x="0.42372882"
     y="0.21186435"
     rx="20"
     ry="14.618644"
     inkscape:export-filename="/home/martin/git/list/app/src/main/res/drawable-xhdpi/treedo.png"
     inkscape:export-xdpi="459.66"
     inkscape:export-ydpi="459.66" /><rect
     style="opacity:0.65991905;fill:none;stroke:none"
     id="rect3007"
     width="76.483047"
     height="68.644066"
     x="-0.21186441"
     y="-0.21186446"
     rx="20"
     ry="14.618644"
     inkscape:export-filename="/home/martin/git/list/app/src/main/res/drawable-xhdpi/treedo.png"
     inkscape:export-xdpi="459.66"
     inkscape:export-ydpi="459.66" /><path
     style="fill:#ffffff;fill-opacity:1;filter:url(#filter3019)"
     d="m 50.387878,15.163635 c -3.199199,0 -6.146231,1.096083 -8.5,2.90625 -7.292023,0.458271 -13.0625,6.498078 -13.0625,13.90625 0,0.605233 0.05231,1.196561 0.125,1.78125 -4.577168,2.28819 -7.71875,7.004275 -7.71875,12.46875 0,7.706836 6.231454,13.96875 13.9375,13.96875 2.608188,0 5.03671,-0.72273 7.125,-1.96875 0.0078,0.0045 0.02309,-0.0045 0.03125,0 0,0 4.118461,9.613493 -0.03125,26.15625 0,0 -0.129953,0.565354 0.9375,0.9375 1.541525,0.546764 4.496287,0.9375 6.21875,0.9375 1.752487,0 5.655649,-0.385205 7.03125,-0.9375 0.908638,-0.359505 0.625,-0.9375 0.625,-0.9375 -1.447488,-9.180624 -3.854274,-16.762808 -0.53125,-26.15625 2.086709,1.24523 4.516812,1.96875 7.125,1.96875 7.704466,0 13.9375,-6.261914 13.9375,-13.96875 0,-5.107341 -2.74619,-9.539134 -6.84375,-11.96875 0.121678,-0.738763 0.1875,-1.511673 0.1875,-2.28125 0,-7.031284 -5.206107,-12.819673 -11.96875,-13.78125 -2.378263,-1.880488 -5.361803,-3.03125 -8.625,-3.03125 z m 7.28125,18.09375 a 2.0002,2.0002 0 0 1 1.5,3.5 l -10.78125,9.875 -1.3125,1.21875 -1.375,-1.1875 -5.375,-4.78125 a 2.003476,2.003476 0 1 1 2.65625,-3 l 4.03125,3.59375 9.46875,-8.65625 a 2.0002,2.0002 0 0 1 1.1875,-0.5625 z"
     id="path3961"
     inkscape:connector-curvature="0" /><g
     inkscape:groupmode="layer"
     id="layer1"
     inkscape:label="leaves"
     style="display:none"><path
       d="m 40.226033,80.908996 c 0,0 1.635703,-5.847868 -27.13997,-33.463874 0,0 29.943498,1.950241 27.13997,33.463874 z M 54.900276,60.10202 c 10.035,-7.941 18.488,-15.329 26.783,-30.683 l 0,0 c 0.363,-0.745 0.658,-1.35 0.855,-1.75 0.75,-1.458 2.371,-4.973999 4.812,-6.815999 -0.021,-10e-4 -24.873,1.422 -36.395,17.991999 -4.271,6.14 -7.312,16.379 -7.312,35.529 0.055,-0.26 0.111,-0.528 0.166,-0.811 0.248,-1.105 0.66,-2.32 1.039,-3.658 0.197,-0.664 0.401,-1.363 0.613,-2.084 0.244,-0.705 0.538,-1.43 0.818,-2.171 0.585,-1.483 1.115,-3.079 1.908,-4.629 0.75,-1.569 1.453,-3.22 2.387,-4.787 0.443,-0.794 0.889,-1.592 1.342,-2.395 0.445,-0.8 0.98,-1.557 1.471,-2.339 0.506,-0.771 0.98,-1.564 1.51,-2.313 0.543,-0.742 1.078,-1.478 1.613,-2.213 1.029,-1.494 2.229,-2.824 3.293,-4.18 1.143,-1.294 2.232,-2.556 3.33,-3.69 1.104,-1.132 2.145,-2.204 3.158,-3.13 1.994,-1.899 3.771,-3.353 5.029,-4.345 1.264,-0.991 2.025,-1.499 2.025,-1.499 0,0 -0.744,0.54 -1.961,1.579 -1.216,1.042 -2.931,2.561 -4.837,4.532 -0.978,0.964 -1.965,2.07 -3.012,3.239 -1.043,1.169 -2.072,2.465 -3.149,3.793 -1.002,1.387 -2.132,2.748 -3.091,4.265 -0.498,0.746 -0.998,1.496 -1.5,2.249 -0.489,0.761 -0.928,1.562 -1.392,2.34 -0.448,0.792 -0.942,1.551 -1.354,2.355 -0.406,0.808 -0.812,1.61 -1.211,2.407 -0.854,1.566 -1.479,3.22 -2.148,4.777 -0.707,1.541 -1.164,3.121 -1.672,4.592 -0.246,0.736 -0.504,1.445 -0.711,2.146 -0.107,0.432 -0.211,0.834 -0.312,1.244 1.726,-2.884 4.182,-6.181 7.905,-9.546 z"
       id="path3"
       inkscape:connector-curvature="0"
       sodipodi:nodetypes="ccccccccccccccccccccccccccccccccccccccc"
       style="fill:#ffffff;fill-opacity:1;filter:url(#filter3948-2)"
       inkscape:export-filename="/home/martin/git/list/app/src/main/res/drawable-xhdpi/treedo.png"
       inkscape:export-xdpi="459.66"
       inkscape:export-ydpi="459.66" /></g></svg>